Simulation
nRows=20
nColumns=15
endheader
time  TH_x TH_y TH_z SC_y  SC_z  SC_x  AC_y  AC_z  AC_x  GH_y  GH_z  GH_yy  EL_x  PS_y
8.6175  0.000000  0.000000  0.000000  -39.203169841226305  1.3310057517164942  -5.32984733756893  39.869649680333765  5.25024617708357  -1.8398114547061126  63.972582151502664  8.891344246863355  -42.70135056805982  20.48825947700847  120.000000
8.67495  0.000000  0.000000  0.000000  -37.76955918825604  0.8013551781845125  -6.816455244330119  39.06283044909309  5.380723311538496  -1.9372557718170036  59.45008741044966  10.455325254852909  -39.07563915353293  20.414489647630738  120.000000
8.7324  0.000000  0.000000  0.000000  -36.35920820889909  0.23858710740406075  -8.43493281470543  38.41790109061817  5.563415887759775  -1.7573145161905557  56.899375008102716  12.43245991396989  -37.250144864023355  20.530924816383997  120.000000
8.78985  0.000000  0.000000  0.000000  -35.11893455640162  -0.33042711846439865  -10.109238426605625  37.98050325251187  5.798410554205087  -1.1174966614279949  55.68130233586351  14.694998738224982  -36.59770797990327  20.81129787734588  120.000000
8.8473  0.000000  0.000000  0.000000  -34.18227598335406  -0.8217869668617358  -11.807276447160287  37.87065806127284  6.12297753136983  0.10305551834211304  55.23501669053541  17.139595232472004  -36.63838886040161  21.190161375855205  120.000000
8.90475  0.000000  0.000000  0.000000  -33.643596793565294  -1.1502382015324917  -13.5220724968926  38.272366337785414  6.615009967973695  1.8863515062400629  55.13015738836707  19.71284716225452  -37.08175230091518  21.576838865344108  120.000000
8.9622  0.000000  0.000000  0.000000  -33.58468373781879  -1.259846888918094  -15.228916296172523  39.25986768540846  7.347413396614644  4.147835645784243  55.110623940114635  22.35270603726518  -37.81041309783139  21.887816059618675  120.000000
9.01965  0.000000  0.000000  0.000000  -34.050013067163746  -1.1043640195617115  -16.870840558558005  40.758799657902294  8.340938696914522  6.775775720894315  55.16880017810047  24.986496393122703  -38.90249911906287  22.08978806406981  120.000000
9.0771  0.000000  0.000000  0.000000  -34.95706464293456  -0.641169226820358  -18.370660952930667  42.71337305496801  9.590868026294213  9.590901055809733  55.40620007925269  27.59622835011176  -40.50437628425097  22.188503730561756  120.000000
9.13455  0.000000  0.000000  0.000000  -36.09537247596386  0.16182370058355547  -19.610014972593582  45.11845769240722  11.096881312929874  12.378698578434207  55.8868794584301  30.21526935945153  -42.693704224192004  22.20433335259786  120.000000
9.192  0.000000  0.000000  0.000000  -37.268573498037064  1.3029090778673926  -20.401575727348405  47.86511615251932  12.830932331290906  14.996756443768327  56.604536723691126  32.833794280077946  -45.43561610517813  22.152464239965937  120.000000
9.24945  0.000000  0.000000  0.000000  -38.399204641297494  2.756233370460169  -20.509231077292434  50.69525975649055  14.696368517942348  17.429373034957997  57.55296445026576  35.3456322809607  -48.63894447753257  22.033456290171447  120.000000
9.3069  0.000000  0.000000  0.000000  -39.49626230577295  4.478215667252195  -19.705182954021737  53.31977254246005  16.54388925902548  19.732285214756487  58.76256905938715  37.6331181424627  -52.23362994271909  21.830906728579404  120.000000
9.36435  0.000000  0.000000  0.000000  -40.59900187802281  6.429563293540663  -17.826430713584124  55.557057163659316  18.232530118132505  21.935780081028952  60.25250633858335  39.687061709192896  -56.18289276414583  21.52962717186369  120.000000
9.421800000000001  0.000000  0.000000  0.000000  -41.75727941410549  8.635716694652428  -14.8112659798851  57.36700497027002  19.66080870897171  23.989238198941006  61.95428025937251  41.61938972816696  -60.42624465717729  21.133859902482623  120.000000
9.47925  0.000000  0.000000  0.000000  -43.053577605363095  11.165347342776574  -10.703460384871516  58.803711490672235  20.771132943820366  25.767867112190352  63.67371405326202  43.5805871783548  -64.81653343401112  20.66594542028157  120.000000
9.5367  0.000000  0.000000  0.000000  -44.62545375475978  13.915418661195023  -5.6267180123272205  59.873310288104896  21.46734327416181  27.242372122820463  65.19979059351029  45.60393392149737  -69.13827467327714  20.159613601579824  120.000000
9.59415  0.000000  0.000000  0.000000  -46.56289634022332  16.57799420085063  0.23151921285710658  60.52719808245835  21.621435900743226  28.519690371887126  66.43800641862944  47.55621986240311  -73.18006884012048  19.64900433332284  120.000000
9.6516  0.000000  0.000000  0.000000  -48.78770578414051  18.86360879411693  6.58327924963443  60.79260895855625  21.20352147170701  29.648803733566986  67.34385768036961  49.266922038230085  -76.73974511094742  19.16920446175371  120.000000
9.70905  0.000000  0.000000  0.000000  -51.09449258345392  20.609338664923516  13.052515761992177  60.777953822552085  20.28668603585612  30.58511317000742  67.90078190936534  50.60635411728522  -79.65151634879578  18.749917038222808  120.000000
